PathFileType	3	(X/Y/Z)	D:\VICON_DB\Goncalves\Pilot01\09-03-2026\static_01.trc
DataRate	CameraRate	NumFrames	NumMarkers	Units	OrigDataRate	OrigDataStartFrame	OrigNumFrames
200.0	200.0	7	34	mm	200.0	161	321	
Frame#	Time	LASI			RASI			LPSI			RPSI			LTHI			LTHAP			LTHAD			LKNE			LKNM			LTIB			LTIAP			LTIAD			LANK			LMED			LHEE			LTOE			LFMH			LSMH			LVMH			RTHI			RTHAP			RTHAD			RKNE			RKNM			RTIB			RTIAP			RTIAD			RANK			RMED			RHEE			RTOE			RFMH			RSMH			RVMH			
		X1	Y1	Z1	X2	Y2	Z2	X3	Y3	Z3	X4	Y4	Z4	X5	Y5	Z5	X6	Y6	Z6	X7	Y7	Z7	X8	Y8	Z8	X9	Y9	Z9	X10	Y10	Z10	X11	Y11	Z11	X12	Y12	Z12	X13	Y13	Z13	X14	Y14	Z14	X15	Y15	Z15	X16	Y16	Z16	X17	Y17	Z17	X18	Y18	Z18	X19	Y19	Z19	X20	Y20	Z20	X21	Y21	Z21	X22	Y22	Z22	X23	Y23	Z23	X24	Y24	Z24	X25	Y25	Z25	X26	Y26	Z26	X27	Y27	Z27	X28	Y28	Z28	X29	Y29	Z29	X30	Y30	Z30	X31	Y31	Z31	X32	Y32	Z32	X33	Y33	Z33	X34	Y34	Z34	
161	0.8	121.04833	904.23132	-1063.3862	117.25651	905.0722	-1328.1647	293.39502	954.46808	-1191.5502	311.83633	954.29382	-1228.5508	126.64396	694.36572	-1031.3419	144.59387	768.19678	-1017.5369	170.6915	630.17145	-1007.4916	222.99876	474.92621	-1023.9282	200.21634	464.98557	-1152.0896	259.66284	281.55298	-1004.1511	202.79846	357.40045	-1059.7347	217.73753	254.95351	-1032.2037	272.74149	70.263512	-1027.1744	239.59363	81.135559	-1107.8501	315.14716	61.577507	-1080.3993	191.48744	71.901428	-1047.3359	134.25064	44.992359	-1073.0826	133.90251	39.334179	-1032.8495	149.20987	25.632467	-993.00928	161.14105	626.57812	-1380.7703	124.93562	752.73651	-1356.8835	108.40741	661.10791	-1334.9685	208.98715	490.92563	-1363.9823	206.34898	434.78268	-1243.7802	228.03873	296.45227	-1382.9062	188.80309	346.63983	-1327.8309	194.02747	265.34882	-1330.8361	269.10352	62.076553	-1356.1304	233.75128	89.991554	-1276.1034	305.13721	57.779999	-1314.1074	176.74657	69.173752	-1340.3468	126.29607	49.399811	-1315.2654	123.88599	40.552666	-1351.3881	139.95267	20.566658	-1388.8246
162	0.805	121.01728	904.21478	-1063.3604	117.18633	905.0589	-1328.1807	293.19	954.51306	-1191.78	311.80905	954.31439	-1228.5203	126.62648	694.3493	-1031.3247	144.55585	768.18042	-1017.5364	170.65796	630.15613	-1007.4808	222.99336	474.90207	-1023.921	200.20284	464.98718	-1152.0927	259.67221	281.55035	-1004.1399	202.79536	357.41293	-1059.7515	217.73248	254.94704	-1032.1954	272.89117	70.19902	-1027.2389	239.58899	81.140129	-1107.8619	315.14755	61.56992	-1080.3892	191.50681	71.880447	-1047.3322	134.25237	44.988331	-1073.0642	133.88809	39.326065	-1032.8499	149.22171	25.612026	-993.00604	161.084	626.59991	-1380.7484	124.89867	752.71088	-1356.8878	108.3681	661.10132	-1334.9634	208.97778	490.89383	-1363.9585	206.49033	434.41959	-1243.8118	228.01334	296.46625	-1382.9158	188.78639	346.64352	-1327.8134	194.00929	265.33694	-1330.8276	269.09061	62.092312	-1356.1326	233.75275	89.984154	-1276.1047	305.15063	57.771355	-1314.0775	176.76973	69.166786	-1340.3544	126.31349	49.385334	-1315.2285	123.984	40.60474	-1351.3597	139.89166	20.574163	-1388.8531
163	0.81	120.96346	904.2002	-1063.3431	117.14834	905.03967	-1328.1499	292.74402	954.52502	-1192.27	311.74942	954.29767	-1228.5183	126.60835	694.33173	-1031.3171	144.51631	768.16821	-1017.5326	170.66693	630.12878	-1007.4539	222.99055	474.88049	-1023.9047	200.20638	464.97903	-1152.0482	259.65704	281.5322	-1004.142	202.82092	357.36829	-1059.6907	217.74367	254.94229	-1032.1875	273.06558	70.194649	-1026.9558	239.55215	81.152008	-1107.8754	315.16931	61.548107	-1080.353	191.51508	71.880219	-1047.3295	134.25775	45.000027	-1073.0673	133.89325	39.315228	-1032.8396	149.22102	25.594334	-993.01337	161.0345	626.59546	-1380.7428	124.98976	752.71265	-1356.704	108.34246	661.1076	-1334.9432	208.92633	490.92136	-1363.9592	206.50865	434.34406	-1243.818	228.00768	296.4722	-1382.8895	188.76971	346.64203	-1327.8055	193.98608	265.3403	-1330.8191	269.09308	62.103146	-1356.1337	233.75867	89.971237	-1276.1018	305.14093	57.782917	-1314.0941	176.755	69.1745	-1340.3561	126.30092	49.395004	-1315.2423	123.98187	40.600784	-1351.3563	139.92371	20.573811	-1388.8302
164	0.815	120.91157	904.19781	-1063.3247	117.04274	905.02429	-1328.1993	292.62399	954.38904	-1192.4901	311.70471	954.29395	-1228.4924	126.59789	694.32117	-1031.2808	144.50798	768.14417	-1017.4839	170.65341	630.11383	-1007.437	222.9926	474.88483	-1023.8907	200.16257	464.98386	-1152.076	259.66443	281.5137	-1004.1409	202.7901	357.3656	-1059.7214	217.7426	254.92865	-1032.1729	272.97824	70.282745	-1026.9764	239.56393	81.131104	-1107.8804	315.16943	61.545361	-1080.335	191.46298	71.841652	-1047.2858	134.25217	44.996758	-1073.0543	133.8851	39.311146	-1032.8312	149.22285	25.576567	-993.0097	161.01562	626.59119	-1380.7302	124.82278	752.69049	-1356.8295	108.28897	661.12518	-1334.9591	208.90746	490.90308	-1363.9513	206.22682	434.75681	-1243.7683	227.99017	296.46048	-1382.8893	188.75418	346.61414	-1327.778	194.00708	265.3291	-1330.7974	269.09534	62.106243	-1356.1345	233.74886	89.959747	-1276.0968	305.12692	57.787601	-1314.0835	176.74457	69.153786	-1340.3329	126.2926	49.387329	-1315.2466	123.99796	40.588009	-1351.338	139.90697	20.577471	-1388.8508
165	0.82	120.85748	904.18237	-1063.2974	117.01755	905.01141	-1328.1426	292.42004	954.39606	-1192.62	311.64633	954.30273	-1228.4746	126.57936	694.29871	-1031.2651	144.45674	768.14313	-1017.4971	170.63017	630.10345	-1007.4146	223.00093	474.86063	-1023.8917	200.14037	464.9772	-1152.0663	259.66263	281.50302	-1004.1414	202.79646	357.36612	-1059.6919	217.74826	254.91974	-1032.1639	272.91016	70.147598	-1027.2195	239.56998	81.113281	-1107.8629	315.14993	61.562992	-1080.3601	191.50168	71.912117	-1047.297	134.26376	44.987297	-1073.0601	133.88548	39.314972	-1032.8269	149.23402	25.555979	-993.02203	160.95795	626.59875	-1380.7266	124.88219	752.69354	-1356.7025	108.25761	661.07574	-1334.9252	208.86543	490.91785	-1363.9613	206.21867	434.73618	-1243.7544	227.97118	296.48218	-1382.8785	188.72339	346.62079	-1327.7915	193.97137	265.31168	-1330.8096	269.09384	62.118065	-1356.1406	233.74666	89.939728	-1276.0959	305.13095	57.784122	-1314.0702	176.74692	69.137169	-1340.3182	126.31149	49.371689	-1315.2208	123.99341	40.594181	-1351.3455	139.99184	20.451427	-1388.7318
166	0.825	120.79927	904.17487	-1063.2788	116.96449	904.98541	-1328.1078	292.474	954.48999	-1192.62	311.60089	954.28687	-1228.4604	126.55286	694.27869	-1031.2499	144.4057	768.14124	-1017.4952	170.61903	630.09186	-1007.3849	222.99242	474.84152	-1023.8765	200.12546	464.97495	-1152.0549	259.64807	281.50308	-1004.133	202.79924	357.35385	-1059.6748	217.73322	254.92036	-1032.1549	273.0108	70.18737	-1026.9373	239.57474	81.106216	-1107.8636	315.18066	61.536118	-1080.3217	191.50525	71.877571	-1047.3217	134.24794	44.981415	-1073.046	133.88062	39.304993	-1032.8197	149.22206	25.565842	-993.01544	160.91821	626.59235	-1380.7257	124.69675	752.67755	-1356.8217	108.19084	661.08832	-1334.9673	208.82187	490.90488	-1363.959	206.35556	434.32043	-1243.7996	227.92412	296.47266	-1382.9054	188.69356	346.60812	-1327.7694	193.97641	265.29239	-1330.7726	269.11157	62.084576	-1356.1104	233.7511	89.933899	-1276.095	305.12048	57.793854	-1314.0929	176.75052	69.154564	-1340.3256	126.3185	49.378716	-1315.1982	123.98123	40.607815	-1351.3541	139.90869	20.559416	-1388.8232
167	0.83	120.75907	904.16187	-1063.2469	116.89854	905.00562	-1328.1133	292.36301	954.46509	-1192.84	311.53903	954.26752	-1228.4464	126.54667	694.26416	-1031.2391	144.40536	768.0954	-1017.4948	170.60291	630.0788	-1007.376	222.97575	474.83151	-1023.8669	200.09827	464.97125	-1152.0604	259.64392	281.50461	-1004.1299	202.79854	357.36227	-1059.6576	217.73642	254.91446	-1032.1477	273.05234	70.19239	-1026.9332	239.57684	81.1026	-1107.8667	315.17313	61.538761	-1080.3158	191.52483	71.855217	-1047.3323	134.25613	44.982147	-1073.0378	133.87215	39.304195	-1032.8251	149.22171	25.574099	-992.99695	160.88371	626.57965	-1380.7042	124.76789	752.68353	-1356.6703	108.16276	661.08032	-1334.9529	208.79791	490.89151	-1363.9454	206.13644	434.7287	-1243.7297	227.92465	296.43799	-1382.8915	188.68968	346.6073	-1327.775	193.95113	265.30182	-1330.7881	269.10004	62.11335	-1356.1188	233.74863	89.934509	-1276.0958	305.12393	57.777969	-1314.084	176.74901	69.157234	-1340.3307	126.34738	49.362762	-1315.1743	123.98835	40.607956	-1351.3521	139.84047	20.515377	-1388.8762
